<?xml version="1.0" encoding="UTF-8"?>
<svg xmlns="http://www.w3.org/2000/svg" xmlns:xlink="http://www.w3.org/1999/xlink" width="375pt" height="374.999991pt" viewBox="0 0 375 374.999991" version="1.2">
<defs>
<clipPath id="clip1">
  <path d="M 2 38.863281 L 373 38.863281 L 373 335.863281 L 2 335.863281 Z M 2 38.863281 "/>
</clipPath>
</defs>
<g id="surface1">
<g clip-path="url(#clip1)" clip-rule="nonzero">
<path style=" stroke:none;fill-rule:nonzero;fill:rgb(19.999695%,25.878906%,34.118652%);fill-opacity:1;" d="M 79.351562 133.839844 C 75.753906 140.066406 67.984375 142.597656 61.46875 139.539062 C 61.378906 139.496094 61.292969 139.457031 61.210938 139.417969 C 53.746094 135.96875 50.820312 126.898438 54.929688 119.78125 L 91.394531 56.675781 C 97.757812 45.652344 109.535156 38.863281 122.277344 38.863281 L 252.722656 38.863281 C 265.464844 38.863281 277.234375 45.652344 283.605469 56.675781 L 318.644531 117.316406 C 322.671875 124.28125 319.988281 133.230469 312.753906 136.769531 C 312.664062 136.808594 312.585938 136.847656 312.496094 136.894531 C 305.902344 140.171875 297.898438 137.761719 294.21875 131.386719 L 265.375 81.476562 C 260.214844 72.539062 250.671875 67.042969 240.351562 67.042969 L 134.648438 67.042969 C 124.328125 67.042969 114.785156 72.539062 109.625 81.476562 Z M 297.082031 238.398438 L 265.375 293.257812 C 260.214844 302.191406 250.671875 307.691406 240.351562 307.691406 L 134.648438 307.691406 C 124.328125 307.691406 114.785156 302.191406 109.625 293.257812 L 79.359375 240.878906 C 75.761719 234.648438 67.992188 232.121094 61.476562 235.179688 C 61.390625 235.21875 61.300781 235.257812 61.21875 235.296875 C 53.753906 238.75 50.828125 247.820312 54.9375 254.9375 L 91.402344 318.042969 C 97.773438 329.066406 109.542969 335.855469 122.285156 335.855469 L 252.730469 335.855469 C 265.472656 335.855469 277.242188 329.066406 283.613281 318.042969 L 321.519531 252.445312 C 325.71875 245.183594 322.546875 235.996094 314.851562 232.632812 C 314.765625 232.59375 314.675781 232.550781 314.589844 232.519531 C 308.148438 229.671875 300.597656 232.3125 297.082031 238.398438 Z M 75.5625 191.339844 C 78.039062 168.003906 58.441406 148.425781 35.082031 150.898438 C 18.0625 152.699219 4.378906 166.371094 2.574219 183.375 C 0.101562 206.710938 19.691406 226.292969 43.054688 223.820312 C 60.074219 222.015625 73.761719 208.34375 75.5625 191.339844 Z M 372.417969 188.25 C 374.890625 164.914062 355.292969 145.332031 331.9375 147.808594 C 314.917969 149.609375 301.230469 163.28125 299.429688 180.285156 C 296.953125 203.621094 316.542969 223.203125 339.910156 220.730469 C 356.925781 218.925781 370.613281 205.253906 372.417969 188.25 Z M 235.542969 291.089844 C 242.882812 291.089844 249.726562 287.140625 253.394531 280.792969 L 285.511719 225.21875 C 287.523438 221.738281 287.601562 217.40625 285.550781 213.949219 C 280.261719 205 277.417969 194.757812 277.417969 184.273438 C 277.417969 174.816406 279.644531 165.707031 283.925781 157.476562 C 285.726562 154.003906 285.71875 149.871094 283.765625 146.480469 L 253.394531 93.929688 C 249.726562 87.582031 242.882812 83.636719 235.542969 83.636719 L 139.457031 83.636719 C 132.117188 83.636719 125.273438 87.582031 121.605469 93.929688 L 90.363281 147.992188 C 88.40625 151.378906 88.289062 155.566406 90.195312 158.976562 C 95 167.621094 97.589844 177.410156 97.589844 187.363281 C 97.589844 197.304688 95.011719 207.101562 90.195312 215.75 C 88.296875 219.167969 88.40625 223.347656 90.363281 226.734375 L 121.605469 280.792969 C 125.273438 287.140625 132.117188 291.089844 139.457031 291.089844 Z M 235.542969 291.089844 "/>
</g>
</g>
</svg>
